<svg id="visual" viewBox="0 0 900 600" width="900" height="600" xmlns="http://www.w3.org/2000/svg" xmlns:xlink="http://www.w3.org/1999/xlink" version="1.1"><rect x="0" y="0" width="900" height="600" fill="#FFFFFF"></rect><path d="M0 473L13.7 466C27.3 459 54.7 445 82 446.5C109.3 448 136.7 465 163.8 472.7C191 480.3 218 478.7 245.2 479.7C272.3 480.7 299.7 484.3 327 473C354.3 461.7 381.7 435.3 409 427.3C436.3 419.3 463.7 429.7 491 439C518.3 448.3 545.7 456.7 573 463.2C600.3 469.7 627.7 474.3 654.8 466C682 457.7 709 436.3 736.2 432C763.3 427.7 790.7 440.3 818 439.7C845.3 439 872.7 425 886.3 418L900 411L900 601L886.3 601C872.7 601 845.3 601 818 601C790.7 601 763.3 601 736.2 601C709 601 682 601 654.8 601C627.7 601 600.3 601 573 601C545.7 601 518.3 601 491 601C463.7 601 436.3 601 409 601C381.7 601 354.3 601 327 601C299.7 601 272.3 601 245.2 601C218 601 191 601 163.8 601C136.7 601 109.3 601 82 601C54.7 601 27.3 601 13.7 601L0 601Z" fill="#6868d9" stroke-linecap="round" stroke-linejoin="miter"></path></svg>