<svg width="921" height="797" viewBox="21.45359992980957 11.055868148803711 722.0621337890625 546.5121459960938" fill="none" xmlns="http://www.w3.org/2000/svg">
    <path d="M742.858 17.8931C744.151 15.769 743.479 13.001 741.357 11.7106C739.235 10.4202 736.466 11.0961 735.173 13.2202L742.858 17.8931ZM453.005 172.658L450.297 176.255C450.412 176.342 450.532 176.423 450.655 176.498L453.005 172.658ZM166.995 329.759L210.953 301.992L164.981 277.837L166.995 329.759ZM728.444 24.1088C727.122 26.2153 727.756 28.9922 729.861 30.3112C731.966 31.6302 734.743 30.9917 736.065 28.8852L728.444 24.1088ZM716.46 58.7405C717.871 56.6924 717.356 53.8907 715.31 52.4827C713.264 51.0747 710.462 51.5935 709.051 53.6416L716.46 58.7405ZM694.22 74.3599C692.735 76.3541 693.145 79.1732 695.137 80.6565C697.129 82.1399 699.948 81.7258 701.434 79.7316L694.22 74.3599ZM679.19 107.761C680.8 105.866 680.569 103.026 678.676 101.419C676.782 99.8117 673.942 100.046 672.333 101.942L679.19 107.761ZM655.381 120.819C653.665 122.62 653.731 125.468 655.529 127.182C657.326 128.895 660.175 128.825 661.891 127.025L655.381 120.819ZM635.796 151.842C637.689 150.228 637.917 147.388 636.306 145.497C634.695 143.607 631.855 143.383 629.963 144.996L635.796 151.842ZM610.093 160.389C608.052 161.81 607.548 164.615 608.966 166.654C610.384 168.693 613.188 169.194 615.229 167.773L610.093 160.389ZM583.742 185.899C586.005 184.87 587.009 182.202 585.983 179.939C584.957 177.677 582.291 176.677 580.027 177.706L583.742 185.899ZM556.694 186.076C554.289 186.707 552.848 189.167 553.476 191.571C554.103 193.975 556.561 195.412 558.965 194.782L556.694 186.076ZM522.551 199.132C525.035 199.192 527.1 197.227 527.164 194.742C527.227 192.258 525.265 190.195 522.78 190.135L522.551 199.132ZM498.361 186.981C495.942 186.413 493.518 187.915 492.948 190.334C492.377 192.754 493.875 195.176 496.294 195.743L498.361 186.981ZM462.109 182.949C464.317 184.087 467.031 183.218 468.172 181.008C469.313 178.798 468.447 176.085 466.239 174.947L462.109 182.949ZM446.228 162.303C444.167 160.917 441.37 161.466 439.982 163.53C438.593 165.593 439.139 168.389 441.2 169.775L446.228 162.303ZM414.244 154.893C416.525 155.876 419.174 154.823 420.16 152.54C421.145 150.257 420.095 147.61 417.814 146.627L414.244 154.893ZM395.457 139.13C393.041 138.551 390.61 140.041 390.028 142.458C389.446 144.875 390.933 147.304 393.349 147.883L395.457 139.13ZM363.185 144.892C365.668 144.787 367.599 142.689 367.497 140.206C367.395 137.723 365.299 135.795 362.816 135.9L363.185 144.892ZM339.381 139.297C336.968 139.895 335.494 142.336 336.089 144.748C336.685 147.16 339.123 148.631 341.536 148.032L339.381 139.297ZM313.031 158.992C315.236 157.843 316.094 155.124 314.948 152.921C313.801 150.717 311.084 149.863 308.879 151.012L313.031 158.992ZM288.895 163.254C286.862 164.686 286.372 167.494 287.802 169.525C289.231 171.557 292.038 172.042 294.071 170.61L288.895 163.254ZM270.096 190.286C271.911 188.585 272.005 185.737 270.307 183.925C268.608 182.113 265.761 182.022 263.946 183.723L270.096 190.286ZM247.676 200.228C245.997 202.062 246.12 204.909 247.952 206.586C249.783 208.263 252.63 208.136 254.309 206.302L247.676 200.228ZM234.166 230.295C235.689 228.329 235.332 225.503 233.368 223.982C231.404 222.462 228.578 222.823 227.055 224.789L234.166 230.295ZM213.381 243.347C211.952 245.382 212.442 248.188 214.475 249.615C216.508 251.041 219.315 250.548 220.744 248.512L213.381 243.347ZM203.384 274.742C204.703 272.634 204.065 269.858 201.959 268.541C199.853 267.225 197.076 267.867 195.757 269.975L203.384 274.742ZM183.891 289.639C182.639 291.788 183.364 294.543 185.511 295.792C187.658 297.041 190.413 296.311 191.665 294.162L183.891 289.639ZM176.318 321.701C177.49 319.508 176.662 316.782 174.471 315.614C172.279 314.445 169.552 315.276 168.381 317.47L176.318 321.701ZM735.173 13.2202C732.928 16.9075 730.685 20.5371 728.444 24.1088L736.065 28.8852C738.328 25.2783 740.592 21.6143 742.858 17.8931L735.173 13.2202ZM709.051 53.6416C704.098 60.8332 699.154 67.7391 694.22 74.3599L701.434 79.7316C706.438 73.0163 711.447 66.0191 716.46 58.7405L709.051 53.6416ZM672.333 101.942C666.667 108.616 661.016 114.908 655.381 120.819L661.891 127.025C667.653 120.98 673.419 114.559 679.19 107.761L672.333 101.942ZM629.963 144.996C623.312 150.667 616.689 155.797 610.093 160.389L615.229 167.773C622.084 163 628.94 157.688 635.796 151.842L629.963 144.996ZM580.027 177.706C572.206 181.261 564.429 184.048 556.694 186.076L558.965 194.782C567.227 192.615 575.486 189.651 583.742 185.899L580.027 177.706ZM522.78 190.135C514.627 189.937 506.489 188.888 498.361 186.981L496.294 195.743C505.012 197.789 513.765 198.92 522.551 199.132L522.78 190.135ZM466.239 174.947C462.613 173.078 458.985 171.035 455.356 168.817L450.655 176.498C454.463 178.826 458.281 180.976 462.109 182.949L466.239 174.947ZM455.714 169.06C452.553 166.682 449.391 164.429 446.228 162.303L441.2 169.775C444.226 171.809 447.258 173.969 450.297 176.255L455.714 169.06ZM417.814 146.627C410.369 143.419 402.916 140.917 395.457 139.13L393.349 147.883C400.277 149.543 407.242 151.876 414.244 154.893L417.814 146.627ZM362.816 135.9C354.977 136.232 347.164 137.366 339.381 139.297L341.536 148.032C348.748 146.244 355.963 145.199 363.185 144.892L362.816 135.9ZM308.879 151.012C302.185 154.502 295.524 158.585 288.895 163.254L294.071 170.61C300.398 166.153 306.718 162.283 313.031 158.992L308.879 151.012ZM263.946 183.723C258.505 188.823 253.082 194.326 247.676 200.228L254.309 206.302C259.572 200.556 264.834 195.218 270.096 190.286L263.946 183.723ZM227.055 224.789C222.487 230.684 217.929 236.87 213.381 243.347L220.744 248.512C225.215 242.145 229.689 236.073 234.166 230.295L227.055 224.789ZM195.757 269.975C191.795 276.307 187.839 282.862 183.891 289.639L191.665 294.162C195.569 287.463 199.475 280.989 203.384 274.742L195.757 269.975Z" fill="#4365DF"></path>
    <path d="M62.9072 345.035L31.4536 387.541V536.315C31.4536 541.951 33.6628 547.357 37.5953 551.343C41.5277 555.329 46.8613 557.568 52.4226 557.568H199.206C204.767 557.568 210.101 555.329 214.033 551.343C217.966 547.357 220.175 541.951 220.175 536.315V387.541L188.721 345.035H62.9072Z" stroke="#4365DF" stroke-width="9" stroke-linecap="round" stroke-linejoin="round"></path>
    <path d="M31.4536 387.541H220.175" stroke="#4365DF" stroke-width="9" stroke-linecap="round" stroke-linejoin="round"></path>
    <path d="M167.752 430.048C167.752 441.321 163.334 452.133 155.469 460.105C147.604 468.076 136.937 472.555 125.814 472.555C114.692 472.555 104.025 468.076 96.1596 460.105C88.2947 452.133 83.8762 441.321 83.8762 430.048" stroke="#4365DF" stroke-width="9" stroke-linecap="round" stroke-linejoin="round"></path>
</svg>