<svg width="921" height="797" viewBox="0 0 921 797" fill="none" xmlns="http://www.w3.org/2000/svg">
<g clip-path="url(#clip0_7_37)">
<path d="M920.161 58.6792C921.81 55.9699 920.953 52.4392 918.247 50.7933C915.54 49.1474 912.008 50.0095 910.359 52.7188L920.161 58.6792ZM550.45 256.084L546.996 260.672C547.142 260.783 547.295 260.886 547.452 260.982L550.45 256.084ZM185.64 456.468L241.709 421.051L183.071 390.241L185.64 456.468ZM901.776 66.6074C900.09 69.2943 900.898 72.8362 903.583 74.5186C906.268 76.201 909.81 75.3866 911.497 72.6997L901.776 66.6074ZM886.49 110.781C888.29 108.168 887.633 104.595 885.023 102.799C882.414 101.003 878.84 101.664 877.04 104.277L886.49 110.781ZM858.123 130.703C856.228 133.247 856.752 136.843 859.292 138.735C861.833 140.627 865.429 140.099 867.324 137.555L858.123 130.703ZM838.952 173.307C841.005 170.89 840.711 167.267 838.296 165.218C835.88 163.167 832.258 163.466 830.205 165.885L838.952 173.307ZM808.583 189.963C806.394 192.26 806.478 195.892 808.772 198.079C811.064 200.264 814.698 200.174 816.887 197.878L808.583 189.963ZM783.602 229.533C786.017 227.474 786.307 223.852 784.253 221.44C782.198 219.029 778.575 218.743 776.162 220.801L783.602 229.533ZM750.818 240.435C748.214 242.247 747.571 245.825 749.38 248.426C751.189 251.027 754.765 251.666 757.369 249.853L750.818 240.435ZM717.206 272.973C720.093 271.66 721.374 268.257 720.065 265.371C718.756 262.486 715.356 261.21 712.468 262.523L717.206 272.973ZM682.706 273.199C679.639 274.004 677.801 277.141 678.602 280.208C679.402 283.274 682.537 285.107 685.603 284.303L682.706 273.199ZM639.157 289.852C642.325 289.928 644.959 287.422 645.04 284.252C645.121 281.084 642.618 278.453 639.449 278.376L639.157 289.852ZM608.302 274.353C605.216 273.629 602.125 275.544 601.397 278.63C600.669 281.717 602.58 284.806 605.665 285.529L608.302 274.353ZM562.062 269.21C564.878 270.662 568.34 269.553 569.795 266.734C571.251 263.916 570.146 260.455 567.33 259.004L562.062 269.21ZM541.806 242.876C539.177 241.108 535.609 241.808 533.839 244.441C532.067 247.072 532.763 250.639 535.392 252.407L541.806 242.876ZM501.009 233.424C503.919 234.678 507.298 233.335 508.555 230.423C509.812 227.511 508.473 224.135 505.563 222.881L501.009 233.424ZM477.046 213.318C473.965 212.58 470.864 214.48 470.122 217.563C469.379 220.646 471.276 223.745 474.358 224.483L477.046 213.318ZM435.883 220.668C439.05 220.534 441.513 217.858 441.383 214.691C441.253 211.524 438.579 209.065 435.412 209.199L435.883 220.668ZM405.521 213.531C402.443 214.294 400.563 217.408 401.322 220.484C402.082 223.561 405.192 225.437 408.269 224.673L405.521 213.531ZM371.911 238.653C374.723 237.187 375.818 233.719 374.356 230.909C372.893 228.098 369.428 227.009 366.615 228.474L371.911 238.653ZM341.125 244.089C338.532 245.916 337.907 249.497 339.731 252.088C341.554 254.68 345.134 255.298 347.727 253.472L341.125 244.089ZM317.147 278.569C319.462 276.399 319.582 272.766 317.416 270.455C315.249 268.144 311.617 268.028 309.302 270.197L317.147 278.569ZM288.55 291.25C286.408 293.589 286.565 297.22 288.902 299.36C291.237 301.499 294.869 301.337 297.01 298.997L288.55 291.25ZM271.318 329.601C273.26 327.093 272.805 323.488 270.3 321.548C267.795 319.61 264.19 320.07 262.247 322.578L271.318 329.601ZM244.806 346.249C242.983 348.844 243.608 352.423 246.201 354.244C248.795 356.062 252.375 355.434 254.198 352.837L244.806 346.249ZM232.055 386.293C233.737 383.605 232.923 380.064 230.237 378.384C227.551 376.705 224.009 377.524 222.326 380.213L232.055 386.293ZM207.191 405.295C205.594 408.036 206.519 411.55 209.257 413.143C211.996 414.736 215.51 413.805 217.107 411.064L207.191 405.295ZM197.532 446.19C199.027 443.393 197.97 439.916 195.176 438.426C192.38 436.935 188.902 437.995 187.408 440.794L197.532 446.19ZM910.359 52.7188C907.495 57.422 904.634 62.0516 901.776 66.6074L911.497 72.6997C914.383 68.0991 917.271 63.4256 920.161 58.6792L910.359 52.7188ZM877.04 104.277C870.722 113.45 864.416 122.258 858.123 130.703L867.324 137.555C873.707 128.99 880.096 120.065 886.49 110.781L877.04 104.277ZM830.205 165.885C822.978 174.397 815.77 182.423 808.583 189.963L816.887 197.878C824.236 190.168 831.591 181.978 838.952 173.307L830.205 165.885ZM776.162 220.801C767.679 228.034 759.231 234.577 750.818 240.435L757.369 249.853C766.112 243.765 774.857 236.989 783.602 229.533L776.162 220.801ZM712.468 262.523C702.492 267.057 692.572 270.612 682.706 273.199L685.603 284.303C696.141 281.539 706.676 277.759 717.206 272.973L712.468 262.523ZM639.449 278.376C629.049 278.123 618.669 276.785 608.302 274.353L605.665 285.529C616.785 288.139 627.95 289.581 639.157 289.852L639.449 278.376ZM567.33 259.004C562.705 256.62 558.077 254.014 553.448 251.185L547.452 260.982C552.309 263.951 557.179 266.694 562.062 269.21L567.33 259.004ZM553.905 251.495C549.873 248.461 545.84 245.588 541.806 242.876L535.392 252.407C539.252 255.001 543.119 257.756 546.996 260.672L553.905 251.495ZM505.563 222.881C496.067 218.789 486.56 215.598 477.046 213.318L474.358 224.483C483.194 226.6 492.078 229.576 501.009 233.424L505.563 222.881ZM435.412 209.199C425.414 209.622 415.448 211.068 405.521 213.531L408.269 224.673C417.468 222.392 426.671 221.06 435.883 220.668L435.412 209.199ZM366.615 228.474C358.077 232.926 349.581 238.134 341.125 244.089L347.727 253.472C355.797 247.787 363.859 242.85 371.911 238.653L366.615 228.474ZM309.302 270.197C302.362 276.703 295.445 283.722 288.55 291.25L297.01 298.997C303.723 291.668 310.435 284.859 317.147 278.569L309.302 270.197ZM262.247 322.578C256.421 330.097 250.607 337.987 244.806 346.249L254.198 352.837C259.9 344.716 265.607 336.971 271.318 329.601L262.247 322.578ZM222.326 380.213C217.273 388.29 212.227 396.651 207.191 405.295L217.107 411.064C222.087 402.519 227.069 394.262 232.055 386.293L222.326 380.213Z" fill="#6868D9"/>
<path d="M52.8746 475.953L12.7551 530.17V719.933C12.7551 727.122 15.573 734.018 20.5889 739.102C25.6048 744.186 32.4079 747.042 39.5014 747.042H226.726C233.819 747.042 240.622 744.186 245.638 739.102C250.654 734.018 253.472 727.122 253.472 719.933V530.17L213.352 475.953H52.8746Z" stroke="#6868D9" stroke-width="11.4796" stroke-linecap="round" stroke-linejoin="round"/>
<path d="M12.7551 530.17H253.472" stroke="#6868D9" stroke-width="11.4796" stroke-linecap="round" stroke-linejoin="round"/>
<path d="M186.606 584.388C186.606 598.767 180.97 612.558 170.938 622.726C160.907 632.894 147.301 638.607 133.113 638.607C118.927 638.607 105.321 632.894 95.2885 622.726C85.2567 612.558 79.6208 598.767 79.6208 584.388" stroke="#6868D9" stroke-width="11.4796" stroke-linecap="round" stroke-linejoin="round"/>
</g>
<defs>
<clipPath id="clip0_7_37">
<rect width="921" height="797" fill="white"/>
</clipPath>
</defs>
</svg>
