<svg id="visual" viewBox="0 0 960 540" width="960" height="540" xmlns="http://www.w3.org/2000/svg" xmlns:xlink="http://www.w3.org/1999/xlink" version="1.1"><path d="M0 471L14.5 467.2C29 463.3 58 455.7 87.2 456.5C116.3 457.3 145.7 466.7 174.8 470.8C204 475 233 474 262 474.5C291 475 320 477 349 470.8C378 464.7 407 450.3 436.2 446C465.3 441.7 494.7 447.3 523.8 452.5C553 457.7 582 462.3 611 465.8C640 469.3 669 471.7 698 467.2C727 462.7 756 451.3 785.2 449C814.3 446.7 843.7 453.3 872.8 453C902 452.7 931 445.3 945.5 441.7L960 438L960 541L945.5 541C931 541 902 541 872.8 541C843.7 541 814.3 541 785.2 541C756 541 727 541 698 541C669 541 640 541 611 541C582 541 553 541 523.8 541C494.7 541 465.3 541 436.2 541C407 541 378 541 349 541C320 541 291 541 262 541C233 541 204 541 174.8 541C145.7 541 116.3 541 87.2 541C58 541 29 541 14.5 541L0 541Z" fill="#6868d9" stroke-linecap="round" stroke-linejoin="miter"></path></svg>