<svg xmlns="http://www.w3.org/2000/svg" fill="none" viewBox="0 0 900 600">
  <g clip-path="url(#a)">
    <path fill="#C62A5E" d="m0 525 21.5-11.5C43 502 86 479 128.8 472c42.9-7 85.5 2 128.4 12.3 42.8 10.4 85.8 22 128.6 17.7 42.9-4.3 85.5-24.7 128.4-33.7 42.8-9 85.8-6.6 128.6-2.1 42.9 4.5 85.5 11.1 128.4 14.5C814 484 857 484 878.5 484H900v116H0v-75Z"/>
    <path fill="#BF358C" d="m0 502 21.5-1.7c21.5-1.6 64.5-5 107.3 1.2 42.9 6.2 85.5 21.8 128.4 26 42.8 4.2 85.8-3.2 128.6-10 42.9-6.8 85.5-13.2 128.4-18 42.8-4.8 85.8-8.2 128.6-6.5 42.9 1.7 85.5 8.3 128.4 11 42.8 2.7 85.8 1.3 107.3.7l21.5-.7v96H0v-98Z"/>
    <path fill="#A34EB7" d="m0 549 21.5-.3c21.5-.4 64.5-1 107.3-2.5 42.9-1.5 85.5-3.9 128.4-6.2 42.8-2.3 85.8-4.7 128.6-3 42.9 1.7 85.5 7.3 128.4 8.3 42.8 1 85.8-2.6 128.6-3.6 42.9-1 85.5.6 128.4 3.6 42.8 3 85.8 7.4 107.3 9.5L900 557v43H0v-51Z"/>
    <path fill="#6868D9" d="m0 574 21.5-2.3 107.3-11.5c42.9-4.5 85.5-8.9 128.4-7C300 555 343 563 385.8 567.5c42.9 4.5 85.5 5.5 128.4 2.5 42.8-3 85.8-10 128.6-12 42.9-2 85.5 1 128.4.5C814 558 857 554 878.5 552l21.5-2v50H0v-26Z"/>
  </g>
  <defs>
    <clipPath id="a">
      <path fill="#fff" d="M0 0h900v600H0z"/>
    </clipPath>
  </defs>
</svg>
