<svg id="visual" viewBox="0 0 900 600" width="900" height="600" xmlns="http://www.w3.org/2000/svg" xmlns:xlink="http://www.w3.org/1999/xlink" version="1.1"><rect x="0" y="0" width="900" height="600" fill="#f2f3f3"></rect><path d="M0 526L21.5 514.5C43 503 86 480 128.8 473C171.7 466 214.3 475 257.2 485.3C300 495.7 343 507.3 385.8 503C428.7 498.7 471.3 478.3 514.2 469.3C557 460.3 600 462.7 642.8 467.2C685.7 471.7 728.3 478.3 771.2 481.7C814 485 857 485 878.5 485L900 485L900 601L878.5 601C857 601 814 601 771.2 601C728.3 601 685.7 601 642.8 601C600 601 557 601 514.2 601C471.3 601 428.7 601 385.8 601C343 601 300 601 257.2 601C214.3 601 171.7 601 128.8 601C86 601 43 601 21.5 601L0 601Z" fill="#c62a5e"></path><path d="M0 503L21.5 501.3C43 499.7 86 496.3 128.8 502.5C171.7 508.7 214.3 524.3 257.2 528.5C300 532.7 343 525.3 385.8 518.5C428.7 511.7 471.3 505.3 514.2 500.5C557 495.7 600 492.3 642.8 494C685.7 495.7 728.3 502.3 771.2 505C814 507.7 857 506.3 878.5 505.7L900 505L900 601L878.5 601C857 601 814 601 771.2 601C728.3 601 685.7 601 642.8 601C600 601 557 601 514.2 601C471.3 601 428.7 601 385.8 601C343 601 300 601 257.2 601C214.3 601 171.7 601 128.8 601C86 601 43 601 21.5 601L0 601Z" fill="#bf358c"></path><path d="M0 550L21.5 549.7C43 549.3 86 548.7 128.8 547.2C171.7 545.7 214.3 543.3 257.2 541C300 538.7 343 536.3 385.8 538C428.7 539.7 471.3 545.3 514.2 546.3C557 547.3 600 543.7 642.8 542.7C685.7 541.7 728.3 543.3 771.2 546.3C814 549.3 857 553.7 878.5 555.8L900 558L900 601L878.5 601C857 601 814 601 771.2 601C728.3 601 685.7 601 642.8 601C600 601 557 601 514.2 601C471.3 601 428.7 601 385.8 601C343 601 300 601 257.2 601C214.3 601 171.7 601 128.8 601C86 601 43 601 21.5 601L0 601Z" fill="#a34eb7"></path><path d="M0 575L21.5 572.7C43 570.3 86 565.7 128.8 561.2C171.7 556.7 214.3 552.3 257.2 554.2C300 556 343 564 385.8 568.5C428.7 573 471.3 574 514.2 571C557 568 600 561 642.8 559C685.7 557 728.3 560 771.2 559.5C814 559 857 555 878.5 553L900 551L900 601L878.5 601C857 601 814 601 771.2 601C728.3 601 685.7 601 642.8 601C600 601 557 601 514.2 601C471.3 601 428.7 601 385.8 601C343 601 300 601 257.2 601C214.3 601 171.7 601 128.8 601C86 601 43 601 21.5 601L0 601Z" fill="#6868d9"></path></svg>