<svg width="531" height="441" viewBox="0 0 531 441" fill="none" xmlns="http://www.w3.org/2000/svg">
<g clip-path="url(#clip0_7_2)" filter="url(#filter0_d_7_2)">
<path d="M265.881 162.602C259.763 162.582 253.836 164.484 248.994 168.021C244.151 171.557 240.656 176.538 239.034 182.211L215.671 182.117C200.704 182.057 188.802 193.65 188.983 208.109L189.221 227.092C189.403 241.551 201.598 253.24 216.564 253.3L306.204 253.66C321.171 253.72 333.073 242.128 332.892 227.669L332.654 208.686C332.472 194.227 320.277 182.537 305.311 182.477L293.232 182.429C291.467 176.74 287.845 171.731 282.911 168.154C277.978 164.578 272.001 162.629 265.881 162.602Z" fill="#6868D9" stroke="#313235" stroke-width="4.84501" stroke-linecap="round" stroke-linejoin="round"/>
<path opacity="0.224" d="M219.88 209.496L210.946 230.796L218.836 253.309L306.204 253.66C309.523 253.673 312.691 253.112 315.61 252.076L316.418 227.664L218.256 226.677L219.88 209.496Z" fill="#313235"/>
<path d="M179.921 80.0003C171.903 79.971 164.163 82.6039 157.997 87.4582C151.831 92.3125 147.613 99.0934 146.049 106.666L128.113 152.108L210.729 179.725L214.567 121.215C215.092 118.826 215.345 116.385 215.323 113.934C215.21 104.972 211.417 96.3615 204.778 89.9977C198.139 83.6338 189.198 80.0376 179.921 80.0003Z" fill="#6868D9" stroke="#313235" stroke-width="4.84501" stroke-linecap="round" stroke-linejoin="round"/>
<path opacity="0.224" d="M211.061 98.152L210.723 115.225L204.302 141.277L212.436 153.69L214.566 121.215C215.092 118.826 215.345 116.385 215.323 113.934C215.246 108.438 213.783 103.02 211.061 98.152Z" fill="#313235"/>
<path d="M165.727 115.628C155.906 115.602 146.321 118.248 138.061 123.265C129.802 128.283 123.2 135.47 119.009 144.008L118.992 143.998L63.7624 246.511L222.287 286.574L217.876 177.19L217.782 177.158C218.5 173.705 218.843 170.183 218.806 166.649C218.637 153.172 212.949 140.225 202.995 130.656C193.041 121.087 179.635 115.68 165.727 115.624L165.727 115.628Z" fill="#C088CE" stroke="#313235" stroke-width="4.84501" stroke-linecap="round" stroke-linejoin="round"/>
<path opacity="0.224" d="M202.335 131.194C202.335 131.194 211.762 147.399 211.236 156.121C208.908 194.684 205.21 262.779 205.213 262.777L213.421 284.333L222.287 286.573L217.876 177.19L217.782 177.158C218.5 173.705 218.843 170.183 218.806 166.649C218.644 155.661 214.812 144.961 207.882 136.154L202.335 131.194Z" fill="#313235"/>
<path d="M140.542 359.764C186.659 359.949 223.59 323.98 223.031 279.425C222.472 234.87 184.634 198.601 138.518 198.416C92.4012 198.231 55.4697 234.199 56.0287 278.754C56.5878 323.309 94.4258 359.578 140.542 359.764Z" fill="#E7E5F1" stroke="#313235" stroke-width="4.84501" stroke-linecap="round" stroke-linejoin="round"/>
<path d="M140.188 331.565C170.185 331.685 194.208 308.289 193.844 279.308C193.48 250.327 168.868 226.735 138.871 226.615C108.875 226.494 84.8522 249.89 85.2158 278.872C85.5795 307.853 110.191 331.444 140.188 331.565Z" fill="#B7C8C4" stroke="#313235" stroke-width="4.84501" stroke-linecap="round" stroke-linejoin="round"/>
<path d="M347.567 80.6738C338.29 80.6366 329.438 84.1612 322.958 90.4724C316.478 96.7836 312.9 105.364 313.013 114.327C313.052 116.778 313.367 119.221 313.952 121.615L319.258 180.161L401.189 153.205L382.045 107.375C380.245 99.8438 375.845 93.0906 369.575 88.2345C363.304 83.3784 355.54 80.7109 347.567 80.6738Z" fill="#6868D9" stroke="#313235" stroke-width="4.84501" stroke-linecap="round" stroke-linejoin="round"/>
<path opacity="0.224" d="M316.487 99.3203C314.142 103.978 312.953 109.114 313.013 114.327C313.052 116.777 313.367 119.221 313.952 121.615L317.428 159.968C320.322 158.682 322.289 157.753 322.289 157.753L321.422 137.599L316.487 99.3203Z" fill="#313235"/>
<path opacity="0.81" d="M309.841 192.374L290.517 192.296C280.025 174.761 276.076 173.57 270.947 172.66" stroke="white" stroke-width="4.84501" stroke-linecap="round" stroke-linejoin="round"/>
<path d="M362.503 116.418C355.596 116.391 348.773 117.678 342.424 120.206C336.075 122.734 330.324 126.453 325.5 131.152C320.675 135.851 316.871 141.437 314.306 147.592C311.74 153.746 310.462 160.348 310.546 167.021C310.61 170.817 311.114 174.6 312.048 178.301L309.962 288.188L471.923 256.124L411.755 148.719C407.758 139.241 400.926 131.095 392.145 125.336C383.363 119.577 373.037 116.47 362.503 116.418Z" fill="#C088CE" stroke="#313235" stroke-width="4.84501" stroke-linecap="round" stroke-linejoin="round"/>
<path opacity="0.224" d="M328.53 128.45C316.938 138.053 310.366 152.149 310.546 167.021C310.61 170.817 311.114 174.6 312.048 178.301L310.195 275.923L324.122 254.958L323.806 180.873C323.806 180.873 321.238 161.649 322.218 152.122C323.054 143.995 328.53 128.45 328.53 128.45Z" fill="#313235"/>
<path d="M393.97 360.782C347.854 360.596 310.016 324.327 309.457 279.772C308.898 235.217 345.829 199.249 391.946 199.434C438.062 199.619 475.9 235.888 476.459 280.443C477.018 324.998 440.087 360.967 393.97 360.782Z" fill="#E7E5F1" stroke="#313235" stroke-width="4.84501" stroke-linecap="round" stroke-linejoin="round"/>
<path d="M393.617 332.583C363.62 332.462 339.008 308.871 338.644 279.89C338.28 250.908 362.303 227.512 392.3 227.633C422.297 227.753 446.909 251.345 447.272 280.326C447.636 309.307 423.613 332.703 393.617 332.583Z" fill="#B7C8C4" stroke="#313235" stroke-width="4.84501" stroke-linecap="round" stroke-linejoin="round"/>
<path opacity="0.52" d="M151.067 228.052L102.621 316.919C109.999 323.667 119.141 328.33 129.026 330.386L177.774 242.454C170.429 235.319 161.165 230.323 151.067 228.052Z" fill="url(#paint0_linear_7_2)"/>
<path opacity="0.52" d="M392.3 227.633C387.953 227.636 383.63 228.144 379.425 229.146L342.115 297.587C345.654 306.875 351.811 315.055 359.881 321.194C360.795 321.433 361.715 321.649 362.639 321.841L411.387 233.91C409.713 232.309 407.936 230.813 406.066 229.43C401.566 228.266 396.94 227.662 392.3 227.633Z" fill="white"/>
<path opacity="0.52" d="M425.436 238.609L376.665 329.835C381.6 331.425 386.733 332.328 391.91 332.518L436.746 249.821C433.564 245.571 429.752 241.792 425.436 238.609Z" fill="white"/>
<path opacity="0.224" d="M199.814 125.849L192.408 220.054L182.518 214.088L194.899 125.237L199.814 125.849Z" fill="#313235"/>
<path opacity="0.132653" d="M392.3 227.633C385.167 227.604 378.121 228.933 371.565 231.544C365.008 234.154 359.069 237.995 354.087 242.848C349.104 247.7 345.176 253.469 342.527 259.825C339.877 266.18 338.558 272.998 338.644 279.89C338.699 282.47 338.951 285.046 339.398 287.597C339.547 273.894 345.241 260.88 355.262 251.336C365.284 241.792 378.838 236.476 393.025 236.526C406.036 236.594 418.666 241.172 428.617 249.429C438.567 257.685 445.177 269.069 447.244 281.512C447.258 281.117 447.267 280.721 447.272 280.326C447.098 266.409 441.208 253.038 430.898 243.156C420.589 233.275 406.705 227.691 392.3 227.633Z" fill="#313235" stroke="#313235" stroke-width="4.84501" stroke-linecap="round" stroke-linejoin="round"/>
<path opacity="0.132653" d="M138.1 226.611C130.967 226.583 123.921 227.912 117.365 230.522C110.808 233.133 104.869 236.974 99.8866 241.827C94.9043 246.679 90.9761 252.448 88.3264 258.804C85.6768 265.159 84.3575 271.977 84.444 278.868C84.499 281.449 84.7509 284.025 85.1976 286.575C85.3463 272.873 91.0404 259.859 101.062 250.315C111.084 240.771 124.637 235.455 138.824 235.504C151.836 235.572 164.466 240.151 174.417 248.407C184.367 256.663 190.977 268.048 193.043 280.491C193.058 280.096 193.067 279.7 193.072 279.305C192.897 265.388 187.008 252.017 176.698 242.135C166.389 232.254 152.505 226.669 138.1 226.611Z" fill="#313235" stroke="#313235" stroke-width="4.84501" stroke-linecap="round" stroke-linejoin="round"/>
<path opacity="0.119" d="M214.48 272.473C214.603 273.919 214.678 275.367 214.703 276.815C214.935 295.369 207.115 313.13 192.961 326.192C178.807 339.254 159.48 346.547 139.23 346.466C121.748 346.376 104.734 340.792 91.0303 330.647C77.3266 320.502 67.7636 306.41 63.9391 290.726C65.3676 308.496 74.1271 325.206 88.434 337.453C102.741 349.701 121.519 356.565 140.945 356.648C161.194 356.729 180.521 349.437 194.675 336.375C208.829 323.313 216.65 305.551 216.417 286.997C216.325 282.115 215.676 277.247 214.48 272.473Z" fill="#313235" stroke="#313235" stroke-width="4.31423" stroke-linecap="round" stroke-linejoin="round"/>
<path opacity="0.119" d="M468.691 274.332C468.814 275.778 468.888 277.226 468.913 278.675C469.146 297.228 461.325 314.99 447.172 328.052C433.018 341.114 413.69 348.406 393.441 348.325C375.959 348.236 358.945 342.652 345.241 332.507C331.537 322.361 321.974 308.27 318.15 292.586C319.578 310.355 328.338 327.065 342.645 339.313C356.952 351.56 375.73 358.425 395.155 358.507C415.405 358.589 434.732 351.296 448.886 338.234C463.04 325.172 470.86 307.411 470.627 288.857C470.536 283.975 469.887 279.107 468.691 274.332Z" fill="#313235" stroke="#313235" stroke-width="4.31423" stroke-linecap="round" stroke-linejoin="round"/>
<path d="M438.984 281.553C438.912 275.783 437.664 270.066 435.312 264.726C432.96 259.387 429.549 254.53 425.275 250.433C421.001 246.336 415.948 243.08 410.403 240.85C404.858 238.62 398.93 237.46 392.959 237.436" stroke="#313235" stroke-width="4.05647" stroke-linecap="round" stroke-linejoin="round"/>
<path d="M96.5642 280.177C96.4918 274.408 97.5964 268.7 99.8148 263.378C102.033 258.057 105.322 253.227 109.494 249.164C113.665 245.102 118.637 241.886 124.127 239.7C129.616 237.514 135.515 236.402 141.487 236.426" stroke="#313235" stroke-width="4.05647" stroke-linecap="round" stroke-linejoin="round"/>
<path d="M140.188 331.565C170.185 331.685 194.208 308.289 193.844 279.308C193.48 250.327 168.868 226.735 138.871 226.615C108.875 226.494 84.8522 249.89 85.2158 278.872C85.5795 307.853 110.191 331.444 140.188 331.565Z" stroke="#313235" stroke-width="4.84501" stroke-linecap="round" stroke-linejoin="round"/>
<path d="M393.617 332.583C363.62 332.462 339.008 308.871 338.644 279.89C338.28 250.908 362.303 227.512 392.3 227.633C422.297 227.753 446.909 251.345 447.272 280.326C447.636 309.307 423.613 332.703 393.617 332.583Z" stroke="#313235" stroke-width="4.84501" stroke-linecap="round" stroke-linejoin="round"/>
</g>
<defs>
<filter id="filter0_d_7_2" x="-4" y="0.474152" width="539" height="447.661" filterUnits="userSpaceOnUse" color-interpolation-filters="sRGB">
<feFlood flood-opacity="0" result="BackgroundImageFix"/>
<feColorMatrix in="SourceAlpha" type="matrix" values="0 0 0 0 0 0 0 0 0 0 0 0 0 0 0 0 0 0 127 0" result="hardAlpha"/>
<feOffset dy="4"/>
<feGaussianBlur stdDeviation="2"/>
<feComposite in2="hardAlpha" operator="out"/>
<feColorMatrix type="matrix" values="0 0 0 0 0 0 0 0 0 0 0 0 0 0 0 0 0 0 0.25 0"/>
<feBlend mode="normal" in2="BackgroundImageFix" result="effect1_dropShadow_7_2"/>
<feBlend mode="normal" in="SourceGraphic" in2="effect1_dropShadow_7_2" result="shape"/>
</filter>
<linearGradient id="paint0_linear_7_2" x1="130.758" y1="312.289" x2="156.242" y2="246.304" gradientUnits="userSpaceOnUse">
<stop stop-color="white"/>
<stop offset="1" stop-color="white" stop-opacity="0"/>
</linearGradient>
<clipPath id="clip0_7_2">
<rect width="531" height="439.661" fill="white" transform="translate(-3.8147e-06 0.474152)"/>
</clipPath>
</defs>
</svg>
