<svg xmlns="http://www.w3.org/2000/svg" fill="none" viewBox="0 0 531 441">
    <g clip-path="url(#a)" filter="url(#b)">
        <path fill="#6868D9" stroke="#313235" stroke-linecap="round" stroke-linejoin="round" stroke-width="4.8" d="M266 163a27 27 0 0 0-27 20l-23-1c-15 0-27 12-27 26v19c0 15 13 26 28 26l89 1c15 0 27-12 27-26v-19c-1-15-13-26-28-27h-12c-2-5-5-10-10-14-5-3-11-5-17-5Z"/><path fill="#313235" d="m220 209-9 22 8 22 87 1 10-2v-24l-98-1 2-18Z" opacity=".2"/><path fill="#6868D9" stroke="#313235" stroke-linecap="round" stroke-linejoin="round" stroke-width="4.8" d="M180 80c-8 0-16 3-22 7-6 5-10 12-12 20l-18 45 83 28 4-59v-7c0-9-4-18-10-24-7-6-16-10-25-10Z"/><path fill="#313235" d="M211 98v17l-7 26 8 13 3-33a32 32 0 0 0-4-23Z" opacity=".2"/><path fill="#C088CE" stroke="#313235" stroke-linecap="round" stroke-linejoin="round" stroke-width="4.8" d="M166 116c-10 0-20 2-28 7s-15 12-19 21h0L64 247l158 40-4-110h0l1-10c0-14-6-27-16-36a54 54 0 0 0-37-15h0Z"/><path fill="#313235" d="M202 131s10 16 9 25l-6 107 8 21 9 3-4-110a49 49 0 0 0-10-41l-6-5Z" opacity=".2"/><path fill="#E7E5F1" stroke="#313235" stroke-linecap="round" stroke-linejoin="round" stroke-width="4.8" d="M141 360c46 0 83-36 82-81-1-44-38-80-84-81-47 0-84 36-83 81 1 44 38 81 85 81Z"/><path fill="#B7C8C4" stroke="#313235" stroke-linecap="round" stroke-linejoin="round" stroke-width="4.8" d="M140 332c30 0 54-24 54-53-1-29-25-52-55-52-30-1-54 23-54 52 1 29 25 52 55 53Z"/><path fill="#6868D9" stroke="#313235" stroke-linecap="round" stroke-linejoin="round" stroke-width="4.8" d="M348 81c-10 0-19 3-25 9a33 33 0 0 0-9 32l5 58 82-27-19-46c-2-7-6-14-12-19-7-5-14-7-22-7Z"/><path fill="#313235" d="M316 99a33 33 0 0 0-2 23l3 38 5-2-1-20-5-39Z" opacity=".2"/><path stroke="#fff" stroke-linecap="round" stroke-linejoin="round" stroke-width="4.8" d="M310 192h-19c-11-17-15-18-20-19" opacity=".8"/><path fill="#C088CE" stroke="#313235" stroke-linecap="round" stroke-linejoin="round" stroke-width="4.8" d="M363 116a54 54 0 0 0-37 15 50 50 0 0 0-14 47l-2 110 162-32-60-107a55 55 0 0 0-49-32Z"/><path fill="#313235" d="M329 128a49 49 0 0 0-17 50l-2 98 14-21v-74s-3-19-2-29c1-8 7-24 7-24Z" opacity=".2"/><path fill="#E7E5F1" stroke="#313235" stroke-linecap="round" stroke-linejoin="round" stroke-width="4.8" d="M394 361c-46 0-84-37-85-81 0-45 37-81 83-81 46 1 84 37 84 81 1 45-36 81-82 81Z"/><path fill="#B7C8C4" stroke="#313235" stroke-linecap="round" stroke-linejoin="round" stroke-width="4.8" d="M394 333c-30-1-55-24-55-53-1-29 23-52 53-52s55 23 55 52c1 29-23 53-53 53Z"/><path fill="url(#c)" d="m151 228-48 89c7 7 16 11 26 13l49-88c-8-7-17-12-27-14Z" opacity=".5"/><path fill="#fff" d="m392 228-13 1-37 69c4 9 10 17 18 23l3 1 48-88-5-5-14-1Zm33 11-48 91 15 3 45-83c-3-4-7-8-12-11Z" opacity=".5"/><path fill="#313235" d="m200 126-8 94-9-6 12-89 5 1Z" opacity=".2"/><path fill="#313235" stroke="#313235" stroke-linecap="round" stroke-linejoin="round" stroke-width="4.8" d="M392 228a55 55 0 0 0-38 15 51 51 0 0 0-15 45c1-14 6-27 16-37 10-9 24-15 38-14 13 0 26 4 36 12a53 53 0 0 1 18 31c0-14-6-27-16-37a56 56 0 0 0-39-15Zm-254-1a55 55 0 0 0-38 15 51 51 0 0 0-15 45c0-14 6-27 16-37 10-9 24-15 38-14a53 53 0 0 1 54 44c0-15-6-28-16-38a56 56 0 0 0-39-15Z" opacity=".1"/><path fill="#313235" stroke="#313235" stroke-linecap="round" stroke-linejoin="round" stroke-width="4.3" d="M214 272a64 64 0 0 1-21 54 82 82 0 0 1-102 4 71 71 0 0 1-27-39c1 17 10 34 24 46a82 82 0 0 0 107-1 66 66 0 0 0 19-64Zm255 2a64 64 0 0 1-22 54 82 82 0 0 1-102 4 71 71 0 0 1-27-39c2 17 10 34 25 46a82 82 0 0 0 106-1 66 66 0 0 0 20-64Z" opacity=".1"/><path stroke="#313235" stroke-linecap="round" stroke-linejoin="round" stroke-width="4.1" d="M439 282a43 43 0 0 0-14-32 47 47 0 0 0-32-13M97 280a42 42 0 0 1 12-31 45 45 0 0 1 32-13"/><path stroke="#313235" stroke-linecap="round" stroke-linejoin="round" stroke-width="4.8" d="M140 332c30 0 54-24 54-53-1-29-25-52-55-52-30-1-54 23-54 52 1 29 25 52 55 53Zm254 1c-30-1-55-24-55-53-1-29 23-52 53-52s55 23 55 52c1 29-23 53-53 53Z"/>
    </g>
    <defs>
        <linearGradient id="c" x1="130.8" x2="156.2" y1="312.3" y2="246.3" gradientUnits="userSpaceOnUse">
            <stop stop-color="#fff"/>
            <stop offset="1" stop-color="#fff" stop-opacity="0"/>
        </linearGradient>
        <clipPath id="a">
            <path fill="#fff" d="M0 0h531v440H0z"/>
        </clipPath>
        <filter id="b" width="539" height="447.7" x="-4" y="1" color-interpolation-filters="sRGB" filterUnits="userSpaceOnUse">
            <feFlood flood-opacity="0" result="BackgroundImageFix"/>
            <feColorMatrix in="SourceAlpha" result="hardAlpha" values="0 0 0 0 0 0 0 0 0 0 0 0 0 0 0 0 0 0 127 0"/>
            <feOffset dy="4"/>
            <feGaussianBlur stdDeviation="2"/>
            <feComposite in2="hardAlpha" operator="out"/>
            <feColorMatrix values="0 0 0 0 0 0 0 0 0 0 0 0 0 0 0 0 0 0 0.25 0"/>
            <feBlend in2="BackgroundImageFix" result="effect1_dropShadow_7_2"/>
            <feBlend in="SourceGraphic" in2="effect1_dropShadow_7_2" result="shape"/>
        </filter>
    </defs>
</svg>