<svg id="visual" viewBox="0 0 900 600" width="900" height="600" xmlns="http://www.w3.org/2000/svg" xmlns:xlink="http://www.w3.org/1999/xlink" version="1.1"><rect x="0" y="0" width="900" height="600" fill="#FFFFFF"></rect><path d="M0 49L13.7 51.8C27.3 54.7 54.7 60.3 82 59.8C109.3 59.3 136.7 52.7 163.8 49.7C191 46.7 218 47.3 245.2 47C272.3 46.7 299.7 45.3 327 49.8C354.3 54.3 381.7 64.7 409 67.8C436.3 71 463.7 67 491 63.3C518.3 59.7 545.7 56.3 573 53.7C600.3 51 627.7 49 654.8 52.3C682 55.7 709 64.3 736.2 66C763.3 67.7 790.7 62.3 818 62.5C845.3 62.7 872.7 68.3 886.3 71.2L900 74L900 0L886.3 0C872.7 0 845.3 0 818 0C790.7 0 763.3 0 736.2 0C709 0 682 0 654.8 0C627.7 0 600.3 0 573 0C545.7 0 518.3 0 491 0C463.7 0 436.3 0 409 0C381.7 0 354.3 0 327 0C299.7 0 272.3 0 245.2 0C218 0 191 0 163.8 0C136.7 0 109.3 0 82 0C54.7 0 27.3 0 13.7 0L0 0Z" fill="#6868d9" stroke-linecap="round" stroke-linejoin="miter"></path></svg>