<svg width="222" height="95" viewBox="0 0 222 95" fill="none" xmlns="http://www.w3.org/2000/svg">
<path d="M0.090909 95V1.90909H62.8182V18.1364H19.7727V40.3182H59.5909V56.5455H19.7727V78.7727H63V95H0.090909ZM77.9205 95V80.8182L111.057 50.1364C113.875 47.4091 116.239 44.9545 118.148 42.7727C120.087 40.5909 121.557 38.4545 122.557 36.3636C123.557 34.2424 124.057 31.9545 124.057 29.5C124.057 26.7727 123.436 24.4242 122.193 22.4545C120.951 20.4545 119.254 18.9242 117.102 17.8636C114.951 16.7727 112.511 16.2273 109.784 16.2273C106.936 16.2273 104.451 16.803 102.33 17.9545C100.208 19.1061 98.572 20.7576 97.4205 22.9091C96.2689 25.0606 95.6932 27.6212 95.6932 30.5909H77.0114C77.0114 24.5 78.3902 19.2121 81.1477 14.7273C83.9053 10.2424 87.7689 6.77273 92.7386 4.31818C97.7083 1.86363 103.436 0.63636 109.92 0.63636C116.587 0.63636 122.39 1.81818 127.33 4.18182C132.299 6.51515 136.163 9.75757 138.92 13.9091C141.678 18.0606 143.057 22.8182 143.057 28.1818C143.057 31.697 142.36 35.1667 140.966 38.5909C139.602 42.0152 137.163 45.8182 133.648 50C130.133 54.1515 125.178 59.1364 118.784 64.9545L105.193 78.2727V78.9091H144.284V95H77.9205ZM159.091 95V1.90909H221.818V18.1364H178.773V40.3182H218.591V56.5455H178.773V78.7727H222V95H159.091Z" fill="#6868D9"/>
</svg>
